<?xml version="1.0" ?><svg id="Layer_1" style="enable-background:new 0 0 32 32;" version="1.1" viewBox="0 0 32 32" xml:space="preserve" xmlns="http://www.w3.org/2000/svg" xmlns:xlink="http://www.w3.org/1999/xlink"><g><g><path d="M13,14H3c-0.5522461,0-1-0.4472656-1-1V3c0-0.5527344,0.4477539-1,1-1h10c0.5522461,0,1,0.4472656,1,1v10    C14,13.5527344,13.5522461,14,13,14z M4,12h8V4H4V12z"/></g><g><path d="M29,14H19c-0.5522461,0-1-0.4472656-1-1V3c0-0.5527344,0.4477539-1,1-1h10c0.5522461,0,1,0.4472656,1,1v10    C30,13.5527344,29.5522461,14,29,14z M20,12h8V4h-8V12z"/></g><g><path d="M13,30H3c-0.5522461,0-1-0.4472656-1-1V19c0-0.5527344,0.4477539-1,1-1h10c0.5522461,0,1,0.4472656,1,1v10    C14,29.5527344,13.5522461,30,13,30z M4,28h8v-8H4V28z"/></g><g><path d="M29,30H19c-0.5522461,0-1-0.4472656-1-1V19c0-0.5527344,0.4477539-1,1-1h10c0.5522461,0,1,0.4472656,1,1v10    C30,29.5527344,29.5522461,30,29,30z M20,28h8v-8h-8V28z"/></g></g></svg>